<svg width="230" height="67" viewBox="0 0 230 67" fill="none" xmlns="http://www.w3.org/2000/svg">
<path d="M212.034 0.476562L210.914 0.733635C210.914 0.733635 202.051 2.63717 198.184 9.33706C193.776 16.9752 198.72 24.2783 198.72 24.2783L199.87 25.9657L201.315 24.5123C201.315 24.5123 202.59 23.172 204.985 22.3577C207.381 21.5435 210.721 21.2744 215.078 23.7901C221.566 27.5372 224.096 33.6129 224.839 35.5695C222.819 36.4797 215.531 39.4656 208.405 35.3504C205.158 33.4759 203.389 31.5213 202.401 30.1979C205.119 29.8248 207.539 30.1239 209.587 30.6751C213.907 31.8364 216.438 34.1491 216.438 34.1491L218.691 31.7184C218.691 31.7184 217.908 30.9722 216.481 30.0799C214.604 28.9066 212.565 28.0137 210.43 27.4292C202.401 26.2138 191.394 25.4936 187 38.0131L191.395 38.0442C192.985 33.5589 195.297 31.6824 198.329 31.0892C199.312 32.5896 202.301 35.6785 206.737 38.2402C216.769 44.0338 227.919 38.0101 227.919 38.0101L229.129 37.384L228.735 36.0716C228.735 36.0716 225.697 26.0688 216.745 20.8993C215.315 20.0724 213.777 19.4476 212.175 19.0428C213.116 17.8995 214.075 16.4741 214.743 14.3835C216.984 7.41352 212.709 1.40783 212.709 1.40783L212.034 0.476562ZM210.469 4.44968C211.23 5.77006 212.915 9.03898 211.539 13.3162C210.849 15.4558 209.842 16.8602 209.009 17.6974C208.179 18.5337 207.682 18.7367 207.682 18.7367C206.342 18.8127 204.95 18.8447 203.896 19.1998C203.642 19.2859 203.406 19.4059 203.174 19.5049C203.581 18.6037 204.014 17.7094 204.497 16.8972C205.242 15.6379 206.049 14.416 206.914 13.2362L204.282 11.1736C204.282 11.1736 202.969 12.8841 201.612 15.1707C200.982 16.2341 200.41 17.3306 199.898 18.4556C199.4 16.5721 199.35 14.0444 201.096 11.0195C203.523 6.81335 208.746 4.99084 210.469 4.44968Z" fill="#232B30"/>
<path d="M3.14631 55H5.96449V44.5909H18.3736V55H21.1918V31.7273H18.3736V42.0909H5.96449V31.7273H3.14631V55ZM31.6065 55.4091C34.652 55.4091 36.2429 53.7727 36.7884 52.6364H36.9247V55H39.6065V43.5C39.6065 37.9545 35.3793 37.3182 33.152 37.3182C30.5156 37.3182 27.5156 38.2273 26.152 41.4091L28.6974 42.3182C29.2884 41.0455 30.6861 39.6818 33.2429 39.6818C35.7088 39.6818 36.9247 40.9886 36.9247 43.2273V43.3182C36.9247 44.6136 35.6065 44.5 32.4247 44.9091C29.1861 45.3295 25.652 46.0455 25.652 50.0455C25.652 53.4545 28.2884 55.4091 31.6065 55.4091ZM32.0156 53C29.8793 53 28.3338 52.0455 28.3338 50.1818C28.3338 48.1364 30.1974 47.5 32.2884 47.2273C33.4247 47.0909 36.4702 46.7727 36.9247 46.2273V48.6818C36.9247 50.8636 35.1974 53 32.0156 53ZM42.6378 60H45.3196V55H58.2287V60H60.9105V52.5H58.2287V37.5455H47.1378L46.5469 44.4545C46.1264 49.3409 45.5014 51.0227 44.0923 52.5H42.6378V60ZM47.1378 52.5C48.3651 50.8864 48.8082 48.1023 49.1832 44.4545L49.6378 40.0455H55.5469V52.5H47.1378ZM71.7884 55.3636C75.3338 55.3636 77.9247 53.5909 78.7429 50.9545L76.152 50.2273C75.4702 52.0455 73.8906 52.9545 71.7884 52.9545C68.6406 52.9545 66.4702 50.9205 66.3452 47.1818H79.0156V46.0455C79.0156 39.5455 75.152 37.3182 71.5156 37.3182C66.7884 37.3182 63.652 41.0455 63.652 46.4091C63.652 51.7727 66.7429 55.3636 71.7884 55.3636ZM66.3452 44.8636C66.527 42.1477 68.4474 39.7273 71.5156 39.7273C74.4247 39.7273 76.2884 41.9091 76.2884 44.8636H66.3452ZM68.1065 34.6364C69.152 34.6364 69.9247 33.7727 69.9247 32.8182C69.9247 31.7727 69.152 31 68.1065 31C67.152 31 66.2884 31.7727 66.2884 32.8182C66.2884 33.7727 67.152 34.6364 68.1065 34.6364ZM74.652 34.6364C75.6974 34.6364 76.4702 33.7727 76.4702 32.8182C76.4702 31.7727 75.6974 31 74.652 31C73.6974 31 72.8338 31.7727 72.8338 32.8182C72.8338 33.7727 73.6974 34.6364 74.652 34.6364ZM81.5355 55H84.7628L90.7173 47.5H92.081V55H94.7628V47.5H96.1264L102.036 55H105.263L98.2173 46.1364L105.172 37.5455H101.99L96.1719 45H94.7628V37.5455H92.081V45H90.6264L84.8082 37.5455H81.6264L88.6264 46.1364L81.5355 55ZM111.777 37.5455H109.095V55H111.777V47.5455H120.141V55H122.822V37.5455H120.141V45.0455H111.777V37.5455ZM134.811 55.3636C139.538 55.3636 142.72 51.7727 142.72 46.3636C142.72 40.9091 139.538 37.3182 134.811 37.3182C130.084 37.3182 126.902 40.9091 126.902 46.3636C126.902 51.7727 130.084 55.3636 134.811 55.3636ZM134.811 52.9545C131.22 52.9545 129.584 49.8636 129.584 46.3636C129.584 42.8636 131.22 39.7273 134.811 39.7273C138.402 39.7273 140.038 42.8636 140.038 46.3636C140.038 49.8636 138.402 52.9545 134.811 52.9545ZM153.905 55.3636C157.768 55.3636 160.314 53 160.768 49.9091H158.087C157.587 51.8182 155.996 52.9545 153.905 52.9545C150.723 52.9545 148.678 50.3182 148.678 46.2727C148.678 42.3182 150.768 39.7273 153.905 39.7273C156.268 39.7273 157.678 41.1818 158.087 42.7727H160.768C160.314 39.5 157.541 37.3182 153.859 37.3182C149.132 37.3182 145.996 41.0455 145.996 46.3636C145.996 51.5909 148.996 55.3636 153.905 55.3636ZM163.314 40.0455H169.087V55H171.768V40.0455H177.496V37.5455H163.314V40.0455ZM184.089 43.8636V37.5455H181.408V55H188.726C192.817 55 195.044 52.5 195.044 49.3636C195.044 46.1818 192.817 43.8636 188.726 43.8636H184.089ZM184.089 46.3636H188.726C190.851 46.3636 192.362 47.6591 192.362 49.5C192.362 51.2614 190.851 52.5 188.726 52.5H184.089V46.3636Z" fill="#212B31"/>
</svg>
